<?xml version="1.0" encoding="utf-8"?>
<!-- Generator: Adobe Illustrator 19.0.0, SVG Export Plug-In . SVG Version: 6.00 Build 0)  -->
<svg version="1.1" id="Layer_1" xmlns="http://www.w3.org/2000/svg" xmlns:xlink="http://www.w3.org/1999/xlink" x="0px" y="0px"
	 viewBox="-235 -140 140 140" style="enable-background:new -235 -140 140 140;" xml:space="preserve">
<style type="text/css">
	.st0{fill:#C6E0D1;stroke:#097234;stroke-width:0.25;stroke-miterlimit:10;}
	.st1{fill:#6B9B6B;}
	.st2{fill:#025927;}
	.st3{fill:#C6E0D1;}
	.st4{opacity:0.58;fill:#6B9B6B;}
	.st5{opacity:0.58;fill:#025927;}
</style>
<g>
	<path class="st0" d="M-165-0.4c-38.4,0-69.6-31.2-69.6-69.6s31.2-69.6,69.6-69.6c38.4,0,69.6,31.2,69.6,69.6S-126.6-0.4-165-0.4z"
		/>
	<path class="st0" d="M-165-139.2c38.1,0,69.2,31,69.2,69.2c0,38.1-31,69.2-69.2,69.2c-38.1,0-69.2-31-69.2-69.2
		S-203.1-139.2-165-139.2 M-165-140c-38.7,0-70,31.3-70,70c0,38.7,31.3,70,70,70c38.7,0,70-31.3,70-70C-95-108.7-126.3-140-165-140
		L-165-140z"/>
</g>
<path d="M-183.8-79.2"/>
<path class="st1" d="M-163.7-93.7c-1.4-7.3-10.4-14.4-21.8-12.7c-8.6,1.3-11.6,8.2-13.2,13.4c-2.7,8.7,1.9,20.1,3.9,24.4l0.8,2.4
	l0.4,0.5c0.4,0.5,0.5,0.6,2.7,2.8c1.3,7.6-0.3,10.3-1.1,11.5l3.5,0.3c0.1-0.1,0.1-0.2,0.2-0.3c0.6-1.4,1.2-3.5,0.4-8.6
	c2.7,2.5,2.7,3.3,6.8,3.3c4.5,0,4.3-0.9,7-3.4c-0.7,4.7-0.2,6.8,0.2,8.3c0,0.1,0.4,0.7,0.4,0.8l3-0.2c-0.6-1.3-1.7-5.5-0.6-12
	c2.2-2.2,2.1-2,2.5-2.5l0.8-1.3C-164.9-73.9-161.5-81.8-163.7-93.7z M-168.4-73.9l-1.2,6.4c-0.9,1-2,2.2-3.2,3.4
	c-0.2,0.2-0.4,0.4-0.6,0.6c-0.2,0.2-0.4,0.4-0.6,0.6c-2.9,2.9-3.6,4.3-7.2,4.3c-3.4,0-4.3-1.4-7.2-4.3c-0.2-0.2-0.4-0.4-0.6-0.6
	c-0.2-0.2-0.4-0.4-0.6-0.6c-1.2-1.2-2.3-2.4-3.2-3.4l-1.2-6.4c-0.6-3.7-0.9-7.1-0.9-10l2.8-5.2l3.4,1.4l2.9,0.2l0.1,1.4l3.6,1.3
	l1.2,0.6l3-3l6.3-2.1c2.9,0.6,3.2,8.1,3.3,14.2C-168.3-74.6-168.3-74.3-168.4-73.9z"/>
<path class="st2" d="M-138.5-48.6l-26.5-4l-9.4-1.5l0.8,2.8c-2.6,2.9-8.3,5.8-14.9-0.3l0.8-2.6l-2.8,0.5l-7.7,1.2l0,0l-24.8,3.9
	l0.3,1.4l24.9-2.9l3.1-0.4l6.9,16.2l20.7-16.1l2.6,0.3l0,0l25.7,2.9L-138.5-48.6z"/>
<rect x="-150.5" y="-61.4" class="st3" width="32" height="27.2"/>
<path class="st4" d="M-129.1-77.4c-1.1-5.9-8.4-11.6-17.6-10.2c-7,1.1-9.4,6.6-10.6,10.8c-2.2,7,1.6,16.2,3.2,19.7l0.6,1.9l0.3,0.4
	c0.3,0.4,0.4,0.5,2.2,2.3c1,6.1-0.2,8.3-0.9,9.3l2.8,0.2c0-0.1,0.1-0.2,0.1-0.3c0.5-1.1,1-2.8,0.3-7c2.2,2.1,2.2,2.7,5.5,2.7
	c3.6,0,3.5-0.7,5.6-2.8c-0.6,3.8-0.2,5.5,0.2,6.7c0,0.1,0.3,0.6,0.3,0.7l2.4-0.2c-0.5-1.1-1.3-4.5-0.5-9.7c1.8-1.8,1.7-1.6,2-2
	l0.6-1.1C-130.1-61.4-127.3-67.8-129.1-77.4z M-132.9-61.4l-0.9,5.2c-0.8,0.8-1.7,1.8-2.6,2.8c-0.2,0.2-0.3,0.3-0.5,0.5
	c-0.2,0.2-0.3,0.3-0.5,0.5c-2.4,2.3-2.9,3.5-5.8,3.5c-2.8,0-3.5-1.1-5.8-3.5c-0.2-0.2-0.3-0.3-0.5-0.5c-0.2-0.2-0.3-0.3-0.5-0.5
	c-0.9-1-1.8-1.9-2.6-2.8l-0.9-5.2c-0.5-3-0.7-5.7-0.7-8l2.3-4.2l2.7,1.1l2.4,0.2l0.1,1.1l2.9,1.1l1,0.5l2.4-2.4l5.1-1.7
	c2.4,0.5,2.6,6.6,2.7,11.5C-132.8-62-132.8-61.7-132.9-61.4z"/>
<path class="st5" d="M-108.8-40.9l-21.4-3.2l-7.6-1.2l0.7,2.2c-2.1,2.3-6.7,4.7-12.1-0.2l0.7-2.1l-2.3,0.4l-6.2,1l0,0l-20,3.2
	l0.2,1.1l20.1-2.3l2.5-0.3l5.6,13l16.7-13l2.1,0.2l0,0l20.7,2.3L-108.8-40.9z"/>
</svg>
